<?xml version="1.0" standalone="no"?>
<!DOCTYPE svg PUBLIC "-//W3C//DTD SVG 20010904//EN"
 "http://www.w3.org/TR/2001/REC-SVG-20010904/DTD/svg10.dtd">
<svg version="1.0" xmlns="http://www.w3.org/2000/svg"
 width="16.000000pt" height="16.000000pt" viewBox="0 0 16.000000 16.000000"
 preserveAspectRatio="xMidYMid meet">
<metadata>
Created by potrace 1.11, written by Peter Selinger 2001-2013
</metadata>
<g transform="translate(0.000000,16.000000) scale(0.006154,-0.006154)"
fill="#000000" stroke="none">
<path d="M2054 2562 c-10 -7 -108 -127 -149 -183 -11 -15 -59 -76 -106 -136
-327 -414 -437 -553 -466 -591 -18 -24 -33 -40 -33 -35 0 4 -13 22 -28 39 -15
18 -76 96 -137 175 -60 79 -125 160 -144 181 l-33 38 -389 0 -389 0 97 -122
c54 -68 131 -166 173 -219 41 -53 131 -167 200 -253 190 -240 260 -330 260
-336 0 -4 -146 -195 -188 -245 -21 -24 -335 -424 -378 -481 -17 -22 -38 -49
-47 -60 -130 -157 -215 -275 -214 -295 l2 -24 308 2 c204 1 313 5 321 12 7 6
53 64 102 129 49 64 93 122 99 128 5 6 21 26 35 44 101 134 283 366 290 368 7
3 60 -61 60 -73 0 -6 -81 -113 -115 -152 -5 -6 -20 -24 -31 -40 -12 -15 -88
-111 -168 -213 -103 -129 -142 -186 -131 -188 8 -2 13 -8 10 -13 -4 -5 30 -9
79 -9 l86 0 246 308 c135 169 250 308 254 310 4 2 20 -13 35 -32 l27 -35 -201
-261 c-111 -143 -201 -262 -201 -265 0 -3 7 -5 16 -5 8 0 12 -4 9 -10 -4 -6
24 -10 77 -10 l84 0 69 90 c39 49 73 90 76 90 3 0 33 -35 65 -77 32 -43 66
-83 74 -90 15 -13 190 -19 190 -7 0 4 -32 47 -70 96 -39 49 -92 116 -117 149
l-46 59 33 48 c18 26 35 49 36 51 7 9 40 -29 168 -193 74 -94 143 -181 154
-194 19 -21 27 -23 112 -20 l93 3 -292 370 c-160 204 -291 372 -291 375 0 3
17 24 38 48 l38 44 49 -64 c27 -35 63 -81 80 -103 147 -189 492 -626 513 -647
24 -26 31 -28 114 -28 48 0 88 4 88 8 0 5 -15 26 -33 48 -18 21 -73 91 -122
154 -50 63 -92 117 -95 120 -24 22 -658 836 -666 857 -3 6 80 121 183 255 104
133 240 308 301 388 62 80 118 152 125 160 7 8 26 33 42 55 16 22 60 78 96
125 36 47 71 100 77 119 39 114 -19 223 -138 259 -25 7 -256 11 -266 4z"/>
</g>
</svg>
